<mxfile host="app.diagrams.net" modified="2022-05-19T15:37:21.998Z" agent="5.0 (Windows NT 10.0; Win64; x64) AppleWebKit/537.36 (KHTML, like Gecko) Chrome/101.0.4951.67 Safari/537.36" etag="-p0F6a4UoC6D2Czp_To7" version="18.0.8" type="github">
  <diagram id="Mz789fsku7gWNi36adHK" name="Page-1">
    <mxGraphModel dx="1422" dy="762" grid="1" gridSize="10" guides="1" tooltips="1" connect="1" arrows="1" fold="1" page="1" pageScale="1" pageWidth="827" pageHeight="1169" math="0" shadow="0">
      <root>
        <mxCell id="0" />
        <mxCell id="1" parent="0" />
        <mxCell id="k5A82h1qlfTNB7ZxTag--1" value="class Task" style="swimlane;" vertex="1" parent="1">
          <mxGeometry x="50" y="70" width="200" height="200" as="geometry" />
        </mxCell>
        <mxCell id="k5A82h1qlfTNB7ZxTag--6" value="def __init__&lt;br&gt;(self, pid, arrival_time, burst_time, priority=None)&lt;br&gt;def __str__(self)" style="text;html=1;strokeColor=none;fillColor=none;align=center;verticalAlign=middle;whiteSpace=wrap;rounded=0;" vertex="1" parent="k5A82h1qlfTNB7ZxTag--1">
          <mxGeometry x="10" y="30" width="180" height="160" as="geometry" />
        </mxCell>
        <mxCell id="k5A82h1qlfTNB7ZxTag--2" value="class Gant_Chart" style="swimlane;" vertex="1" parent="1">
          <mxGeometry x="314" y="70" width="200" height="200" as="geometry" />
        </mxCell>
        <mxCell id="k5A82h1qlfTNB7ZxTag--5" value="def&amp;nbsp; start(self, start_time)&lt;br&gt;def add(self, pid, used_time)&lt;br&gt;def draw(self)" style="text;html=1;strokeColor=none;fillColor=none;align=center;verticalAlign=middle;whiteSpace=wrap;rounded=0;" vertex="1" parent="k5A82h1qlfTNB7ZxTag--2">
          <mxGeometry x="10" y="30" width="180" height="160" as="geometry" />
        </mxCell>
        <mxCell id="k5A82h1qlfTNB7ZxTag--3" value="class Ready_queue" style="swimlane;" vertex="1" parent="1">
          <mxGeometry x="580" y="70" width="200" height="200" as="geometry" />
        </mxCell>
        <mxCell id="k5A82h1qlfTNB7ZxTag--4" value="insert_process&lt;br&gt;(self, process, key)" style="text;html=1;strokeColor=none;fillColor=none;align=center;verticalAlign=middle;whiteSpace=wrap;rounded=0;" vertex="1" parent="k5A82h1qlfTNB7ZxTag--3">
          <mxGeometry x="10" y="30" width="180" height="160" as="geometry" />
        </mxCell>
        <mxCell id="k5A82h1qlfTNB7ZxTag--7" value="FCFS(tasks)" style="swimlane;fontStyle=0;childLayout=stackLayout;horizontal=1;startSize=30;horizontalStack=0;resizeParent=1;resizeParentMax=0;resizeLast=0;collapsible=1;marginBottom=0;" vertex="1" parent="1">
          <mxGeometry x="20" y="440" width="140" height="90" as="geometry" />
        </mxCell>
        <mxCell id="k5A82h1qlfTNB7ZxTag--8" value="tasks" style="text;strokeColor=none;fillColor=none;align=left;verticalAlign=middle;spacingLeft=4;spacingRight=4;overflow=hidden;points=[[0,0.5],[1,0.5]];portConstraint=eastwest;rotatable=0;" vertex="1" parent="k5A82h1qlfTNB7ZxTag--7">
          <mxGeometry y="30" width="140" height="30" as="geometry" />
        </mxCell>
        <mxCell id="k5A82h1qlfTNB7ZxTag--9" value="gant = Gant_Chart()" style="text;strokeColor=none;fillColor=none;align=left;verticalAlign=middle;spacingLeft=4;spacingRight=4;overflow=hidden;points=[[0,0.5],[1,0.5]];portConstraint=eastwest;rotatable=0;" vertex="1" parent="k5A82h1qlfTNB7ZxTag--7">
          <mxGeometry y="60" width="140" height="30" as="geometry" />
        </mxCell>
        <mxCell id="k5A82h1qlfTNB7ZxTag--26" value="SJF(tasks)" style="swimlane;fontStyle=0;childLayout=stackLayout;horizontal=1;startSize=30;horizontalStack=0;resizeParent=1;resizeParentMax=0;resizeLast=0;collapsible=1;marginBottom=0;" vertex="1" parent="1">
          <mxGeometry x="234" y="440" width="180" height="120" as="geometry" />
        </mxCell>
        <mxCell id="k5A82h1qlfTNB7ZxTag--27" value="tasks" style="text;strokeColor=none;fillColor=none;align=left;verticalAlign=middle;spacingLeft=4;spacingRight=4;overflow=hidden;points=[[0,0.5],[1,0.5]];portConstraint=eastwest;rotatable=0;" vertex="1" parent="k5A82h1qlfTNB7ZxTag--26">
          <mxGeometry y="30" width="180" height="30" as="geometry" />
        </mxCell>
        <mxCell id="k5A82h1qlfTNB7ZxTag--28" value="gant = Gant_chart()" style="text;strokeColor=none;fillColor=none;align=left;verticalAlign=middle;spacingLeft=4;spacingRight=4;overflow=hidden;points=[[0,0.5],[1,0.5]];portConstraint=eastwest;rotatable=0;" vertex="1" parent="k5A82h1qlfTNB7ZxTag--26">
          <mxGeometry y="60" width="180" height="30" as="geometry" />
        </mxCell>
        <mxCell id="k5A82h1qlfTNB7ZxTag--29" value="ready_queue = Ready_Queue" style="text;strokeColor=none;fillColor=none;align=left;verticalAlign=middle;spacingLeft=4;spacingRight=4;overflow=hidden;points=[[0,0.5],[1,0.5]];portConstraint=eastwest;rotatable=0;" vertex="1" parent="k5A82h1qlfTNB7ZxTag--26">
          <mxGeometry y="90" width="180" height="30" as="geometry" />
        </mxCell>
        <mxCell id="k5A82h1qlfTNB7ZxTag--34" value="RR(tasks, t_q)" style="swimlane;fontStyle=0;childLayout=stackLayout;horizontal=1;startSize=30;horizontalStack=0;resizeParent=1;resizeParentMax=0;resizeLast=0;collapsible=1;marginBottom=0;" vertex="1" parent="1">
          <mxGeometry x="560" y="440" width="180" height="120" as="geometry" />
        </mxCell>
        <mxCell id="k5A82h1qlfTNB7ZxTag--35" value="tasks" style="text;strokeColor=none;fillColor=none;align=left;verticalAlign=middle;spacingLeft=4;spacingRight=4;overflow=hidden;points=[[0,0.5],[1,0.5]];portConstraint=eastwest;rotatable=0;" vertex="1" parent="k5A82h1qlfTNB7ZxTag--34">
          <mxGeometry y="30" width="180" height="30" as="geometry" />
        </mxCell>
        <mxCell id="k5A82h1qlfTNB7ZxTag--36" value="t_q (time quantum)" style="text;strokeColor=none;fillColor=none;align=left;verticalAlign=middle;spacingLeft=4;spacingRight=4;overflow=hidden;points=[[0,0.5],[1,0.5]];portConstraint=eastwest;rotatable=0;" vertex="1" parent="k5A82h1qlfTNB7ZxTag--34">
          <mxGeometry y="60" width="180" height="30" as="geometry" />
        </mxCell>
        <mxCell id="k5A82h1qlfTNB7ZxTag--37" value="gant = Gant_chart()" style="text;strokeColor=none;fillColor=none;align=left;verticalAlign=middle;spacingLeft=4;spacingRight=4;overflow=hidden;points=[[0,0.5],[1,0.5]];portConstraint=eastwest;rotatable=0;" vertex="1" parent="k5A82h1qlfTNB7ZxTag--34">
          <mxGeometry y="90" width="180" height="30" as="geometry" />
        </mxCell>
        <mxCell id="k5A82h1qlfTNB7ZxTag--38" value="priority(tasks)" style="swimlane;fontStyle=0;childLayout=stackLayout;horizontal=1;startSize=30;horizontalStack=0;resizeParent=1;resizeParentMax=0;resizeLast=0;collapsible=1;marginBottom=0;" vertex="1" parent="1">
          <mxGeometry x="100" y="620" width="180" height="120" as="geometry" />
        </mxCell>
        <mxCell id="k5A82h1qlfTNB7ZxTag--39" value="tasks" style="text;strokeColor=none;fillColor=none;align=left;verticalAlign=middle;spacingLeft=4;spacingRight=4;overflow=hidden;points=[[0,0.5],[1,0.5]];portConstraint=eastwest;rotatable=0;" vertex="1" parent="k5A82h1qlfTNB7ZxTag--38">
          <mxGeometry y="30" width="180" height="30" as="geometry" />
        </mxCell>
        <mxCell id="k5A82h1qlfTNB7ZxTag--40" value="gant = Gant_chart()" style="text;strokeColor=none;fillColor=none;align=left;verticalAlign=middle;spacingLeft=4;spacingRight=4;overflow=hidden;points=[[0,0.5],[1,0.5]];portConstraint=eastwest;rotatable=0;" vertex="1" parent="k5A82h1qlfTNB7ZxTag--38">
          <mxGeometry y="60" width="180" height="30" as="geometry" />
        </mxCell>
        <mxCell id="k5A82h1qlfTNB7ZxTag--41" value="ready_queue = Ready_Queue" style="text;strokeColor=none;fillColor=none;align=left;verticalAlign=middle;spacingLeft=4;spacingRight=4;overflow=hidden;points=[[0,0.5],[1,0.5]];portConstraint=eastwest;rotatable=0;" vertex="1" parent="k5A82h1qlfTNB7ZxTag--38">
          <mxGeometry y="90" width="180" height="30" as="geometry" />
        </mxCell>
        <mxCell id="k5A82h1qlfTNB7ZxTag--42" value="priority(tasks)" style="swimlane;fontStyle=0;childLayout=stackLayout;horizontal=1;startSize=30;horizontalStack=0;resizeParent=1;resizeParentMax=0;resizeLast=0;collapsible=1;marginBottom=0;" vertex="1" parent="1">
          <mxGeometry x="340" y="620" width="180" height="120" as="geometry" />
        </mxCell>
        <mxCell id="k5A82h1qlfTNB7ZxTag--43" value="tasks" style="text;strokeColor=none;fillColor=none;align=left;verticalAlign=middle;spacingLeft=4;spacingRight=4;overflow=hidden;points=[[0,0.5],[1,0.5]];portConstraint=eastwest;rotatable=0;" vertex="1" parent="k5A82h1qlfTNB7ZxTag--42">
          <mxGeometry y="30" width="180" height="30" as="geometry" />
        </mxCell>
        <mxCell id="k5A82h1qlfTNB7ZxTag--44" value="gant = Gant_chart()" style="text;strokeColor=none;fillColor=none;align=left;verticalAlign=middle;spacingLeft=4;spacingRight=4;overflow=hidden;points=[[0,0.5],[1,0.5]];portConstraint=eastwest;rotatable=0;" vertex="1" parent="k5A82h1qlfTNB7ZxTag--42">
          <mxGeometry y="60" width="180" height="30" as="geometry" />
        </mxCell>
        <mxCell id="k5A82h1qlfTNB7ZxTag--45" value="ready_queue = Ready_Queue" style="text;strokeColor=none;fillColor=none;align=left;verticalAlign=middle;spacingLeft=4;spacingRight=4;overflow=hidden;points=[[0,0.5],[1,0.5]];portConstraint=eastwest;rotatable=0;" vertex="1" parent="k5A82h1qlfTNB7ZxTag--42">
          <mxGeometry y="90" width="180" height="30" as="geometry" />
        </mxCell>
      </root>
    </mxGraphModel>
  </diagram>
</mxfile>
